<svg width="130" height="22" viewBox="0 0 130 22" fill="none" xmlns="http://www.w3.org/2000/svg">
<path d="M2.628 19V3.38H9.536C10.2547 3.38 10.9147 3.52667 11.516 3.82C12.132 4.11333 12.66 4.50933 13.1 5.008C13.5547 5.50667 13.8993 6.064 14.134 6.68C14.3833 7.296 14.508 7.92667 14.508 8.572C14.508 9.56933 14.2513 10.486 13.738 11.322C13.2393 12.158 12.5573 12.7593 11.692 13.126L15.256 19H11.912L8.7 13.764H5.664V19H2.628ZM5.664 11.102H9.47C10.042 11.102 10.5113 10.86 10.878 10.376C11.2593 9.87733 11.45 9.276 11.45 8.572C11.45 8.088 11.3473 7.65533 11.142 7.274C10.9367 6.89267 10.6727 6.592 10.35 6.372C10.042 6.152 9.70467 6.042 9.338 6.042H5.664V11.102ZM20.8101 19.22C19.5488 19.22 18.4635 18.9487 17.5541 18.406C16.6595 17.8487 15.9701 17.1153 15.4861 16.206C15.0021 15.2967 14.7601 14.314 14.7601 13.258C14.7601 12.1873 15.0021 11.1973 15.4861 10.288C15.9848 9.37867 16.6815 8.65267 17.5761 8.11C18.4855 7.55267 19.5635 7.274 20.8101 7.274C22.0568 7.274 23.1275 7.55267 24.0221 8.11C24.9315 8.65267 25.6281 9.37867 26.1121 10.288C26.5961 11.1973 26.8381 12.1873 26.8381 13.258C26.8381 14.314 26.5961 15.2967 26.1121 16.206C25.6281 17.1153 24.9315 17.8487 24.0221 18.406C23.1275 18.9487 22.0568 19.22 20.8101 19.22ZM17.7961 13.258C17.7961 13.9327 17.9281 14.534 18.1921 15.062C18.4561 15.5753 18.8155 15.9787 19.2701 16.272C19.7248 16.5653 20.2381 16.712 20.8101 16.712C21.3675 16.712 21.8735 16.5653 22.3281 16.272C22.7828 15.964 23.1421 15.5533 23.4061 15.04C23.6848 14.512 23.8241 13.9107 23.8241 13.236C23.8241 12.576 23.6848 11.9893 23.4061 11.476C23.1421 10.948 22.7828 10.5373 22.3281 10.244C21.8735 9.936 21.3675 9.782 20.8101 9.782C20.2381 9.782 19.7248 9.936 19.2701 10.244C18.8155 10.5373 18.4561 10.948 18.1921 11.476C17.9281 11.9893 17.7961 12.5833 17.7961 13.258ZM33.0959 19.22C31.8493 19.22 30.7713 18.9413 29.8619 18.384C28.9526 17.8267 28.2486 17.0933 27.7499 16.184C27.2513 15.2747 27.0019 14.292 27.0019 13.236C27.0019 12.1653 27.2439 11.1753 27.7279 10.266C28.2266 9.35667 28.9306 8.63067 29.8399 8.088C30.7493 7.54533 31.8273 7.274 33.0739 7.274C34.3353 7.274 35.4059 7.54533 36.2859 8.088C37.1806 8.63067 37.8479 9.342 38.2879 10.222L35.4059 11.102C34.8926 10.222 34.1079 9.782 33.0519 9.782C32.4799 9.782 31.9666 9.92867 31.5119 10.222C31.0573 10.5007 30.6979 10.904 30.4339 11.432C30.1699 11.9453 30.0379 12.5467 30.0379 13.236C30.0379 13.9107 30.1699 14.512 30.4339 15.04C30.7126 15.5533 31.0793 15.964 31.5339 16.272C31.9886 16.5653 32.4946 16.712 33.0519 16.712C33.5799 16.712 34.0639 16.5873 34.5039 16.338C34.9586 16.074 35.2739 15.744 35.4499 15.348L38.3319 16.228C37.9359 17.0933 37.2759 17.812 36.3519 18.384C35.4426 18.9413 34.3573 19.22 33.0959 19.22ZM46.9219 19L43.5559 14.028L41.9939 15.568V19H39.0459V2.94H41.9939V12.664L46.6359 7.494H49.7599L45.4699 12.378L50.0679 19H46.9219ZM54.9579 19.22C53.7113 19.22 52.6333 18.9487 51.7239 18.406C50.8293 17.8633 50.1326 17.1447 49.6339 16.25C49.1353 15.3407 48.8859 14.358 48.8859 13.302C48.8859 12.2167 49.1279 11.2193 49.6119 10.31C50.1106 9.386 50.8146 8.65267 51.7239 8.11C52.6333 7.55267 53.7186 7.274 54.9799 7.274C56.2413 7.274 57.3193 7.55267 58.2139 8.11C59.1086 8.65267 59.7906 9.37867 60.2599 10.288C60.7439 11.1827 60.9859 12.1507 60.9859 13.192C60.9859 13.5733 60.9639 13.9033 60.9199 14.182H52.0099C52.0833 15.0767 52.4133 15.7807 52.9999 16.294C53.6013 16.8073 54.2906 17.064 55.0679 17.064C55.6546 17.064 56.2046 16.9247 56.7179 16.646C57.2459 16.3527 57.6053 15.9713 57.7959 15.502L60.3259 16.206C59.9006 17.086 59.2186 17.812 58.2799 18.384C57.3413 18.9413 56.2339 19.22 54.9579 19.22ZM51.9439 12.312H57.9719C57.8839 11.4467 57.5539 10.75 56.9819 10.222C56.4246 9.67933 55.7426 9.408 54.9359 9.408C54.1439 9.408 53.4619 9.67933 52.8899 10.222C52.3326 10.75 52.0173 11.4467 51.9439 12.312ZM68.4824 18.406C68.0864 18.582 67.5951 18.758 67.0084 18.934C66.4364 19.11 65.8424 19.198 65.2264 19.198C64.6838 19.198 64.1851 19.1027 63.7304 18.912C63.2758 18.7213 62.9091 18.4207 62.6304 18.01C62.3664 17.5847 62.2344 17.0347 62.2344 16.36V9.738H60.7164V7.472H62.2344V3.732H65.1824V7.472H67.6024V9.738H65.1824V15.37C65.1824 15.766 65.2851 16.052 65.4904 16.228C65.7104 16.404 65.9744 16.492 66.2824 16.492C66.5904 16.492 66.8911 16.4407 67.1844 16.338C67.4778 16.2353 67.7124 16.1473 67.8884 16.074L68.4824 18.406ZM86.1269 19V8.748L82.1229 16.382H80.4289L76.4249 8.748V19H73.3889V3.38H76.6449L81.2649 12.268L85.9289 3.38H89.1629V19H86.1269ZM96.1687 19.22C94.9074 19.22 93.8221 18.9487 92.9127 18.406C92.0181 17.8487 91.3287 17.1153 90.8447 16.206C90.3607 15.2967 90.1187 14.314 90.1187 13.258C90.1187 12.1873 90.3607 11.1973 90.8447 10.288C91.3434 9.37867 92.0401 8.65267 92.9347 8.11C93.8441 7.55267 94.9221 7.274 96.1687 7.274C97.4154 7.274 98.4861 7.55267 99.3807 8.11C100.29 8.65267 100.987 9.37867 101.471 10.288C101.955 11.1973 102.197 12.1873 102.197 13.258C102.197 14.314 101.955 15.2967 101.471 16.206C100.987 17.1153 100.29 17.8487 99.3807 18.406C98.4861 18.9487 97.4154 19.22 96.1687 19.22ZM93.1547 13.258C93.1547 13.9327 93.2867 14.534 93.5507 15.062C93.8147 15.5753 94.1741 15.9787 94.6287 16.272C95.0834 16.5653 95.5967 16.712 96.1687 16.712C96.7261 16.712 97.2321 16.5653 97.6867 16.272C98.1414 15.964 98.5007 15.5533 98.7647 15.04C99.0434 14.512 99.1827 13.9107 99.1827 13.236C99.1827 12.576 99.0434 11.9893 98.7647 11.476C98.5007 10.948 98.1414 10.5373 97.6867 10.244C97.2321 9.936 96.7261 9.782 96.1687 9.782C95.5967 9.782 95.0834 9.936 94.6287 10.244C94.1741 10.5373 93.8147 10.948 93.5507 11.476C93.2867 11.9893 93.1547 12.5833 93.1547 13.258ZM102.383 13.236C102.383 12.136 102.603 11.1313 103.043 10.222C103.483 9.31267 104.091 8.594 104.869 8.066C105.646 7.538 106.533 7.274 107.531 7.274C108.381 7.274 109.144 7.48667 109.819 7.912C110.508 8.32267 111.043 8.85067 111.425 9.496V2.94H114.373V15.7C114.373 16.0227 114.424 16.25 114.527 16.382C114.629 16.4993 114.805 16.5727 115.055 16.602V19C114.527 19.1027 114.109 19.154 113.801 19.154C113.273 19.154 112.833 19.022 112.481 18.758C112.143 18.494 111.953 18.1493 111.909 17.724L111.865 16.998C111.439 17.7167 110.86 18.2667 110.127 18.648C109.408 19.0293 108.653 19.22 107.861 19.22C106.79 19.22 105.844 18.956 105.023 18.428C104.201 17.8853 103.556 17.1667 103.087 16.272C102.617 15.3627 102.383 14.3507 102.383 13.236ZM111.425 14.776V12.026C111.19 11.3807 110.787 10.8453 110.215 10.42C109.643 9.99467 109.056 9.782 108.455 9.782C107.853 9.782 107.325 9.95067 106.871 10.288C106.416 10.6107 106.064 11.0433 105.815 11.586C105.565 12.114 105.441 12.686 105.441 13.302C105.441 13.9327 105.58 14.512 105.859 15.04C106.137 15.5533 106.511 15.964 106.981 16.272C107.465 16.5653 108.015 16.712 108.631 16.712C109.188 16.712 109.738 16.5287 110.281 16.162C110.838 15.7953 111.219 15.3333 111.425 14.776ZM121.512 19.22C120.266 19.22 119.188 18.9487 118.278 18.406C117.384 17.8633 116.687 17.1447 116.188 16.25C115.69 15.3407 115.44 14.358 115.44 13.302C115.44 12.2167 115.682 11.2193 116.166 10.31C116.665 9.386 117.369 8.65267 118.278 8.11C119.188 7.55267 120.273 7.274 121.534 7.274C122.796 7.274 123.874 7.55267 124.768 8.11C125.663 8.65267 126.345 9.37867 126.814 10.288C127.298 11.1827 127.54 12.1507 127.54 13.192C127.54 13.5733 127.518 13.9033 127.474 14.182H118.564C118.638 15.0767 118.968 15.7807 119.554 16.294C120.156 16.8073 120.845 17.064 121.622 17.064C122.209 17.064 122.759 16.9247 123.272 16.646C123.8 16.3527 124.16 15.9713 124.35 15.502L126.88 16.206C126.455 17.086 125.773 17.812 124.834 18.384C123.896 18.9413 122.788 19.22 121.512 19.22ZM118.498 12.312H124.526C124.438 11.4467 124.108 10.75 123.536 10.222C122.979 9.67933 122.297 9.408 121.49 9.408C120.698 9.408 120.016 9.67933 119.444 10.222C118.887 10.75 118.572 11.4467 118.498 12.312Z" fill="url(#paint0_linear)"/>
<path d="M2.628 19H0.628V21H2.628V19ZM2.628 3.38V1.38H0.628V3.38H2.628ZM11.516 3.82L10.6392 5.61754L10.6476 5.62167L10.6561 5.62572L11.516 3.82ZM13.1 5.008L11.6003 6.33124L11.6111 6.34346L11.6221 6.35551L13.1 5.008ZM14.134 6.68L12.265 7.39199L12.2724 7.41127L12.2801 7.43039L14.134 6.68ZM13.738 11.322L12.0337 10.2755L12.0269 10.2864L12.0204 10.2974L13.738 11.322ZM11.692 13.126L10.9117 11.2845L8.78269 12.1866L9.98212 14.1635L11.692 13.126ZM15.256 19V21H18.8088L16.9659 17.9625L15.256 19ZM11.912 19L10.2072 20.0458L10.7926 21H11.912V19ZM8.7 13.764L10.4048 12.7182L9.81944 11.764H8.7V13.764ZM5.664 13.764V11.764H3.664V13.764H5.664ZM5.664 19V21H7.664V19H5.664ZM5.664 11.102H3.664V13.102H5.664V11.102ZM10.878 10.376L9.28927 9.16109L9.28382 9.16828L10.878 10.376ZM11.142 7.274L12.9029 6.3258L12.9029 6.3258L11.142 7.274ZM10.35 6.372L9.18752 7.99947L9.20529 8.01216L9.22333 8.02446L10.35 6.372ZM5.664 6.042V4.042H3.664V6.042H5.664ZM4.628 19V3.38H0.628V19H4.628ZM2.628 5.38H9.536V1.38H2.628V5.38ZM9.536 5.38C9.97379 5.38 10.3309 5.46715 10.6392 5.61754L12.3928 2.02246C11.4985 1.58618 10.5355 1.38 9.536 1.38V5.38ZM10.6561 5.62572C11.035 5.80612 11.3435 6.04022 11.6003 6.33124L14.5997 3.68476C13.9765 2.97844 13.229 2.42055 12.3759 2.01428L10.6561 5.62572ZM11.6221 6.35551C11.9118 6.67323 12.1218 7.0161 12.265 7.39199L16.003 5.96801C15.6768 5.1119 15.1976 4.3401 14.5779 3.66049L11.6221 6.35551ZM12.2801 7.43039C12.4359 7.81522 12.508 8.19157 12.508 8.572H16.508C16.508 7.66177 16.3308 6.77678 15.9879 5.92961L12.2801 7.43039ZM12.508 8.572C12.508 9.20636 12.3503 9.75979 12.0337 10.2755L15.4423 12.3685C16.1524 11.2122 16.508 9.93231 16.508 8.572H12.508ZM12.0204 10.2974C11.7311 10.7824 11.371 11.0899 10.9117 11.2845L12.4723 14.9675C13.7437 14.4288 14.7476 13.5336 15.4556 12.3466L12.0204 10.2974ZM9.98212 14.1635L13.5461 20.0375L16.9659 17.9625L13.4019 12.0885L9.98212 14.1635ZM15.256 17H11.912V21H15.256V17ZM13.6168 17.9542L10.4048 12.7182L6.99521 14.8098L10.2072 20.0458L13.6168 17.9542ZM8.7 11.764H5.664V15.764H8.7V11.764ZM3.664 13.764V19H7.664V13.764H3.664ZM5.664 17H2.628V21H5.664V17ZM5.664 13.102H9.47V9.102H5.664V13.102ZM9.47 13.102C10.7116 13.102 11.7545 12.531 12.4722 11.5837L9.28382 9.16828C9.2539 9.20778 9.26636 9.17799 9.33442 9.14289C9.36588 9.12667 9.39812 9.11526 9.42703 9.10854C9.45527 9.10197 9.4712 9.102 9.47 9.102V13.102ZM12.4667 11.5909C13.147 10.7013 13.45 9.65902 13.45 8.572H9.45C9.45 8.89297 9.37168 9.05336 9.28928 9.1611L12.4667 11.5909ZM13.45 8.572C13.45 7.79657 13.2829 7.03149 12.9029 6.3258L9.38106 8.2222C9.41174 8.27918 9.45 8.37943 9.45 8.572H13.45ZM12.9029 6.3258C12.5625 5.69354 12.092 5.13907 11.4767 4.71954L9.22333 8.02446C9.25335 8.04493 9.31084 8.0918 9.38106 8.2222L12.9029 6.3258ZM11.5125 4.74453C10.877 4.2906 10.1357 4.042 9.338 4.042V8.042C9.31786 8.042 9.28414 8.03841 9.24596 8.02596C9.22831 8.0202 9.21378 8.01386 9.20292 8.00831C9.19218 8.00282 9.18707 7.99914 9.18752 7.99947L11.5125 4.74453ZM9.338 4.042H5.664V8.042H9.338V4.042ZM3.664 6.042V11.102H7.664V6.042H3.664ZM17.5541 18.406L16.4966 20.1036L16.5128 20.1136L16.5292 20.1234L17.5541 18.406ZM15.4861 16.206L13.7206 17.1457L15.4861 16.206ZM15.4861 10.288L13.7325 9.32633L13.7265 9.33728L13.7206 9.3483L15.4861 10.288ZM17.5761 8.11L18.6134 9.82004L18.6213 9.8152L17.5761 8.11ZM24.0221 8.11L22.9646 9.80756L22.9808 9.81765L22.9972 9.82742L24.0221 8.11ZM26.1121 16.206L27.8776 17.1457L27.8776 17.1457L26.1121 16.206ZM24.0221 18.406L25.0594 20.116L25.0673 20.1112L24.0221 18.406ZM18.1921 15.062L16.4033 15.9564L16.4084 15.9666L16.4136 15.9767L18.1921 15.062ZM19.2701 16.272L20.3544 14.5914L20.3544 14.5914L19.2701 16.272ZM22.3281 16.272L23.4124 17.9526L23.4313 17.9404L23.4498 17.9278L22.3281 16.272ZM23.4061 15.04L21.6374 14.1065L21.6324 14.1159L21.6276 14.1253L23.4061 15.04ZM23.4061 11.476L21.6173 12.3704L21.6324 12.4006L21.6484 12.4302L23.4061 11.476ZM22.3281 10.244L21.2064 11.8998L21.225 11.9124L21.2439 11.9246L22.3281 10.244ZM19.2701 10.244L20.3544 11.9246L20.3733 11.9124L20.3918 11.8998L19.2701 10.244ZM18.1921 11.476L19.9707 12.3907L19.9759 12.3806L19.981 12.3704L18.1921 11.476ZM20.8101 17.22C19.8403 17.22 19.1239 17.0137 18.5791 16.6886L16.5292 20.1234C17.8031 20.8836 19.2573 21.22 20.8101 21.22V17.22ZM18.6116 16.7084C18.0082 16.3326 17.5664 15.8577 17.2516 15.2663L13.7206 17.1457C14.3739 18.373 15.3107 19.3648 16.4966 20.1036L18.6116 16.7084ZM17.2516 15.2663C16.9256 14.6537 16.7601 13.9948 16.7601 13.258H12.7601C12.7601 14.6332 13.0787 15.9396 13.7206 17.1457L17.2516 15.2663ZM16.7601 13.258C16.7601 12.5017 16.9278 11.8362 17.2516 11.2277L13.7206 9.3483C13.0765 10.5585 12.7601 11.873 12.7601 13.258H16.7601ZM17.2398 11.2497C17.5679 10.6513 18.0163 10.1822 18.6134 9.82002L16.5389 6.39998C15.3467 7.12313 14.4017 8.10607 13.7325 9.32633L17.2398 11.2497ZM18.6213 9.8152C19.1662 9.4812 19.8692 9.274 20.8101 9.274V5.274C19.2578 5.274 17.8047 5.62414 16.531 6.4048L18.6213 9.8152ZM20.8101 9.274C21.7521 9.274 22.4413 9.48152 22.9646 9.80756L25.0796 6.41244C23.8137 5.62381 22.3615 5.274 20.8101 5.274V9.274ZM22.9972 9.82742C23.6026 10.1887 24.039 10.6496 24.3466 11.2277L27.8776 9.3483C27.2173 8.10772 26.2603 7.11662 25.0471 6.39257L22.9972 9.82742ZM24.3466 11.2277C24.6705 11.8362 24.8381 12.5017 24.8381 13.258H28.8381C28.8381 11.873 28.5218 10.5585 27.8776 9.3483L24.3466 11.2277ZM24.8381 13.258C24.8381 13.9948 24.6727 14.6537 24.3466 15.2663L27.8776 17.1457C28.5196 15.9396 28.8381 14.6332 28.8381 13.258H24.8381ZM24.3466 15.2663C24.0363 15.8494 23.5935 16.3229 22.977 16.7008L25.0673 20.1112C26.2694 19.3744 27.22 18.3813 27.8776 17.1457L24.3466 15.2663ZM22.9849 16.696C22.4582 17.0154 21.7616 17.22 20.8101 17.22V21.22C22.352 21.22 23.7967 20.8819 25.0594 20.116L22.9849 16.696ZM15.7961 13.258C15.7961 14.1986 15.9818 15.1134 16.4033 15.9564L19.981 14.1676C19.8745 13.9546 19.7961 13.6667 19.7961 13.258H15.7961ZM16.4136 15.9767C16.8268 16.7802 17.4169 17.4565 18.1859 17.9526L20.3544 14.5914C20.214 14.5008 20.0855 14.3705 19.9707 14.1473L16.4136 15.9767ZM18.1859 17.9526C18.9826 18.4666 19.8766 18.712 20.8101 18.712V14.712C20.5997 14.712 20.467 14.6641 20.3544 14.5914L18.1859 17.9526ZM20.8101 18.712C21.7399 18.712 22.6244 18.461 23.4124 17.9526L21.2439 14.5914C21.1225 14.6697 20.9951 14.712 20.8101 14.712V18.712ZM23.4498 17.9278C24.1965 17.4221 24.7755 16.7505 25.1847 15.9547L21.6276 14.1253C21.5088 14.3562 21.3692 14.5059 21.2064 14.6162L23.4498 17.9278ZM25.1749 15.9735C25.6242 15.1222 25.8241 14.1932 25.8241 13.236H21.8241C21.8241 13.6281 21.7454 13.9018 21.6374 14.1065L25.1749 15.9735ZM25.8241 13.236C25.8241 12.2866 25.6212 11.3644 25.1638 10.5218L21.6484 12.4302C21.7484 12.6143 21.8241 12.8654 21.8241 13.236H25.8241ZM25.195 10.5816C24.7858 9.76323 24.1952 9.06842 23.4124 8.56341L21.2439 11.9246C21.3705 12.0062 21.4985 12.1328 21.6173 12.3704L25.195 10.5816ZM23.4498 8.58816C22.6589 8.05235 21.761 7.782 20.8101 7.782V11.782C20.9739 11.782 21.0881 11.8196 21.2064 11.8998L23.4498 8.58816ZM20.8101 7.782C19.8558 7.782 18.9485 8.0462 18.1484 8.58816L20.3918 11.8998C20.5011 11.8258 20.6204 11.782 20.8101 11.782V7.782ZM18.1859 8.56341C17.4031 9.06842 16.8125 9.76323 16.4033 10.5816L19.981 12.3704C20.0998 12.1328 20.2278 12.0062 20.3544 11.9246L18.1859 8.56341ZM16.4136 10.5613C15.9813 11.4018 15.7961 12.3189 15.7961 13.258H19.7961C19.7961 12.8478 19.8749 12.5769 19.9707 12.3907L16.4136 10.5613ZM29.8619 18.384L30.9071 16.6788L30.9071 16.6788L29.8619 18.384ZM27.7499 16.184L29.5036 15.2223L29.5036 15.2223L27.7499 16.184ZM27.7279 10.266L25.9743 9.30433L25.9683 9.31528L25.9624 9.3263L27.7279 10.266ZM29.8399 8.088L30.8649 9.80542L30.8649 9.80542L29.8399 8.088ZM36.2859 8.088L35.2362 9.79034L35.2424 9.7942L35.2487 9.79802L36.2859 8.088ZM38.2879 10.222L38.872 12.1348L41.1349 11.4438L40.0768 9.32757L38.2879 10.222ZM35.4059 11.102L33.6784 12.1097L34.476 13.4771L35.99 13.0148L35.4059 11.102ZM31.5119 10.222L32.5571 11.9272L32.5768 11.9151L32.5962 11.9026L31.5119 10.222ZM30.4339 11.432L32.2125 12.3467L32.2177 12.3366L32.2228 12.3264L30.4339 11.432ZM30.4339 15.04L28.6451 15.9344L28.6602 15.9646L28.6762 15.9942L30.4339 15.04ZM31.5339 16.272L30.4122 17.9278L30.4308 17.9404L30.4497 17.9526L31.5339 16.272ZM34.5039 16.338L35.49 18.078L35.4991 18.0729L35.5082 18.0676L34.5039 16.338ZM35.4499 15.348L36.034 13.4352L34.3412 12.9183L33.6223 14.5357L35.4499 15.348ZM38.3319 16.228L40.1506 17.0602L41.1014 14.9825L38.916 14.3152L38.3319 16.228ZM36.3519 18.384L37.3971 20.0892L37.4046 20.0845L36.3519 18.384ZM33.0959 17.22C32.155 17.22 31.452 17.0128 30.9071 16.6788L28.8168 20.0892C30.0905 20.8699 31.5436 21.22 33.0959 21.22V17.22ZM30.9071 16.6788C30.2858 16.298 29.8299 15.8174 29.5036 15.2223L25.9963 17.1457C26.6673 18.3692 27.6194 19.3553 28.8168 20.0892L30.9071 16.6788ZM29.5036 15.2223C29.1696 14.6133 29.0019 13.9622 29.0019 13.236H25.0019C25.0019 14.6218 25.333 15.936 25.9963 17.1457L29.5036 15.2223ZM29.0019 13.236C29.0019 12.4797 29.1696 11.8142 29.4934 11.2057L25.9624 9.3263C25.3183 10.5365 25.0019 11.851 25.0019 13.236H29.0019ZM29.4816 11.2277C29.8052 10.6375 30.2546 10.1696 30.8649 9.80542L28.815 6.37057C27.6066 7.09174 26.648 8.07585 25.9743 9.30433L29.4816 11.2277ZM30.8649 9.80542C31.4132 9.47821 32.1235 9.274 33.0739 9.274V5.274C31.531 5.274 30.0854 5.61246 28.815 6.37057L30.8649 9.80542ZM33.0739 9.274C34.0462 9.274 34.7347 9.48112 35.2362 9.79034L37.3357 6.38566C36.0772 5.60955 34.6243 5.274 33.0739 5.274V9.274ZM35.2487 9.79802C35.8424 10.1581 36.2386 10.5954 36.4991 11.1164L40.0768 9.32757C39.4573 8.08857 38.5188 7.10323 37.3232 6.37798L35.2487 9.79802ZM37.7039 8.30918L34.8219 9.18918L35.99 13.0148L38.872 12.1348L37.7039 8.30918ZM37.1335 10.0943C36.2459 8.5727 34.7873 7.782 33.0519 7.782V11.782C33.2972 11.782 33.4089 11.831 33.4542 11.8565C33.4961 11.8799 33.5771 11.9361 33.6784 12.1097L37.1335 10.0943ZM33.0519 7.782C32.1184 7.782 31.2244 8.0274 30.4277 8.54141L32.5962 11.9026C32.7088 11.8299 32.8415 11.782 33.0519 11.782V7.782ZM30.4668 8.5168C29.6598 9.0114 29.0578 9.71205 28.6451 10.5376L32.2228 12.3264C32.338 12.096 32.4547 11.9899 32.5571 11.9272L30.4668 8.5168ZM28.6554 10.5173C28.2202 11.3635 28.0379 12.2899 28.0379 13.236H32.0379C32.0379 12.8035 32.1197 12.5271 32.2125 12.3467L28.6554 10.5173ZM28.0379 13.236C28.0379 14.1766 28.2236 15.0914 28.6451 15.9344L32.2228 14.1456C32.1163 13.9326 32.0379 13.6447 32.0379 13.236H28.0379ZM28.6762 15.9942C29.0977 16.7706 29.6757 17.4289 30.4122 17.9278L32.6556 14.6162C32.4829 14.4991 32.3275 14.3361 32.1916 14.0858L28.6762 15.9942ZM30.4497 17.9526C31.2376 18.461 32.1222 18.712 33.0519 18.712V14.712C32.867 14.712 32.7396 14.6697 32.6182 14.5914L30.4497 17.9526ZM33.0519 18.712C33.9097 18.712 34.7358 18.5054 35.49 18.078L33.5179 14.598C33.3921 14.6693 33.2502 14.712 33.0519 14.712V18.712ZM35.5082 18.0676C36.2478 17.6381 36.8967 17.0172 37.2776 16.1603L33.6223 14.5357C33.6327 14.5123 33.6426 14.5033 33.6355 14.5108C33.6259 14.5208 33.5883 14.557 33.4997 14.6084L35.5082 18.0676ZM34.8659 17.2608L37.7479 18.1408L38.916 14.3152L36.034 13.4352L34.8659 17.2608ZM36.5133 15.3958C36.3039 15.8534 35.9369 16.2887 35.2992 16.6835L37.4046 20.0845C38.6149 19.3353 39.568 18.3333 40.1506 17.0602L36.5133 15.3958ZM35.3068 16.6788C34.7654 17.0106 34.0565 17.22 33.0959 17.22V21.22C34.6581 21.22 36.1198 20.872 37.3971 20.0892L35.3068 16.6788ZM46.9219 19L45.2657 20.1212L45.8607 21H46.9219V19ZM43.5559 14.028L45.2121 12.9068L43.8641 10.9156L42.1518 12.6038L43.5559 14.028ZM41.9939 15.568L40.5898 14.1438L39.9939 14.7313V15.568H41.9939ZM41.9939 19V21H43.9939V19H41.9939ZM39.0459 19H37.0459V21H39.0459V19ZM39.0459 2.94V0.94H37.0459V2.94H39.0459ZM41.9939 2.94H43.9939V0.94H41.9939V2.94ZM41.9939 12.664H39.9939V17.8851L43.4821 14.0002L41.9939 12.664ZM46.6359 7.494V5.494H45.7438L45.1477 6.15782L46.6359 7.494ZM49.7599 7.494L51.2625 8.81388L54.1787 5.494H49.7599V7.494ZM45.4699 12.378L43.9673 11.0581L42.9348 12.2336L43.8271 13.5187L45.4699 12.378ZM50.0679 19V21H53.8915L51.7107 17.8593L50.0679 19ZM48.5781 17.8788L45.2121 12.9068L41.8997 15.1492L45.2657 20.1212L48.5781 17.8788ZM42.1518 12.6038L40.5898 14.1438L43.3981 16.9922L44.9601 15.4522L42.1518 12.6038ZM39.9939 15.568V19H43.9939V15.568H39.9939ZM41.9939 17H39.0459V21H41.9939V17ZM41.0459 19V2.94H37.0459V19H41.0459ZM39.0459 4.94H41.9939V0.94H39.0459V4.94ZM39.9939 2.94V12.664H43.9939V2.94H39.9939ZM43.4821 14.0002L48.1241 8.83018L45.1477 6.15782L40.5057 11.3278L43.4821 14.0002ZM46.6359 9.494H49.7599V5.494H46.6359V9.494ZM48.2573 6.17412L43.9673 11.0581L46.9725 13.6979L51.2625 8.81388L48.2573 6.17412ZM43.8271 13.5187L48.4251 20.1407L51.7107 17.8593L47.1127 11.2373L43.8271 13.5187ZM50.0679 17H46.9219V21H50.0679V17ZM51.7239 18.406L50.6867 20.116L50.6928 20.1197L50.699 20.1234L51.7239 18.406ZM49.6339 16.25L47.8803 17.2117L47.887 17.2237L49.6339 16.25ZM49.6119 10.31L47.8518 9.36012L47.8464 9.3703L49.6119 10.31ZM51.7239 8.11L52.7488 9.82742L52.759 9.82137L52.769 9.8152L51.7239 8.11ZM58.2139 8.11L57.1564 9.80756L57.1665 9.81385L57.1767 9.82002L58.2139 8.11ZM60.2599 10.288L58.4827 11.2053L58.4916 11.2225L58.5008 11.2396L60.2599 10.288ZM60.9199 14.182V16.182H62.6289L62.8954 14.4939L60.9199 14.182ZM52.0099 14.182V12.182H49.8393L50.0166 14.3454L52.0099 14.182ZM52.9999 16.294L51.6829 17.7992L51.6921 17.8072L51.7014 17.8151L52.9999 16.294ZM56.7179 16.646L57.6721 18.4037L57.6807 18.3991L57.6892 18.3943L56.7179 16.646ZM57.7959 15.502L58.3321 13.5752L56.6141 13.0972L55.943 14.7492L57.7959 15.502ZM60.3259 16.206L62.1266 17.0763L63.1684 14.921L60.8621 14.2792L60.3259 16.206ZM58.2799 18.384L59.301 20.1037L59.3109 20.0979L59.3207 20.0919L58.2799 18.384ZM51.9439 12.312L49.9511 12.1431L49.7673 14.312H51.9439V12.312ZM57.9719 12.312V14.312H60.1856L59.9617 12.1097L57.9719 12.312ZM56.9819 10.222L55.5867 11.6549L55.6058 11.6735L55.6254 11.6916L56.9819 10.222ZM52.8899 10.222L54.2654 11.6739L54.2664 11.6729L52.8899 10.222ZM54.9579 17.22C54.0075 17.22 53.2971 17.0158 52.7488 16.6886L50.699 20.1234C51.9694 20.8815 53.415 21.22 54.9579 21.22V17.22ZM52.7611 16.696C52.1562 16.329 51.707 15.8614 51.3809 15.2763L47.887 17.2237C48.5582 18.428 49.5023 19.3976 50.6867 20.116L52.7611 16.696ZM51.3875 15.2883C51.0536 14.6793 50.8859 14.0282 50.8859 13.302H46.8859C46.8859 14.6878 47.2169 16.002 47.8803 17.2117L51.3875 15.2883ZM50.8859 13.302C50.8859 12.5262 51.0557 11.8541 51.3774 11.2497L47.8464 9.3703C47.2001 10.5845 46.8859 11.9071 46.8859 13.302H50.8859ZM51.372 11.2599C51.6978 10.6562 52.1465 10.1869 52.7488 9.82742L50.699 6.39257C49.4827 7.11845 48.5234 8.11581 47.8519 9.36013L51.372 11.2599ZM52.769 9.8152C53.3104 9.48337 54.0194 9.274 54.9799 9.274V5.274C53.4178 5.274 51.9561 5.62196 50.6788 6.4048L52.769 9.8152ZM54.9799 9.274C55.9416 9.274 56.6366 9.48374 57.1564 9.80756L59.2714 6.41244C58.0019 5.62159 56.5409 5.274 54.9799 5.274V9.274ZM57.1767 9.82002C57.7639 10.1762 58.1863 10.631 58.4827 11.2053L62.0372 9.37071C61.3949 8.12634 60.4533 7.12916 59.2511 6.39998L57.1767 9.82002ZM58.5008 11.2396C58.8229 11.8349 58.9859 12.4748 58.9859 13.192H62.9859C62.9859 11.8266 62.665 10.5304 62.019 9.33636L58.5008 11.2396ZM58.9859 13.192C58.9859 13.5026 58.9676 13.7233 58.9444 13.8701L62.8954 14.4939C62.9603 14.0834 62.9859 13.6441 62.9859 13.192H58.9859ZM60.9199 12.182H52.0099V16.182H60.9199V12.182ZM50.0166 14.3454C50.1255 15.6735 50.6454 16.8913 51.6829 17.7992L54.3169 14.7888C54.1811 14.67 54.041 14.4798 54.0032 14.0186L50.0166 14.3454ZM51.7014 17.8151C52.658 18.6317 53.8057 19.064 55.0679 19.064V15.064C54.7755 15.064 54.5445 14.9829 54.2984 14.7729L51.7014 17.8151ZM55.0679 19.064C55.9863 19.064 56.8645 18.8421 57.6721 18.4037L55.7637 14.8883C55.5447 15.0072 55.3228 15.064 55.0679 15.064V19.064ZM57.6892 18.3943C58.5363 17.9237 59.255 17.2242 59.6489 16.2548L55.943 14.7492C55.9425 14.7504 55.9424 14.7506 55.9418 14.7516C55.9411 14.7527 55.9374 14.7583 55.9278 14.7684C55.9089 14.7885 55.8577 14.836 55.7466 14.8977L57.6892 18.3943ZM57.2598 17.4288L59.7898 18.1328L60.8621 14.2792L58.3321 13.5752L57.2598 17.4288ZM58.5252 15.3357C58.2877 15.8272 57.8915 16.2786 57.2392 16.6761L59.3207 20.0919C60.5457 19.3454 61.5135 18.3448 62.1266 17.0763L58.5252 15.3357ZM57.2588 16.6643C56.678 17.0092 55.9359 17.22 54.9579 17.22V21.22C56.5319 21.22 58.0045 20.8735 59.301 20.1037L57.2588 16.6643ZM51.9439 14.312H57.9719V10.312H51.9439V14.312ZM59.9617 12.1097C59.8305 10.82 59.3118 9.65088 58.3385 8.75239L55.6254 11.6916C55.796 11.8491 55.9373 12.0734 55.9822 12.5143L59.9617 12.1097ZM58.3772 8.78906C57.4313 7.8681 56.2423 7.408 54.9359 7.408V11.408C55.2428 11.408 55.4179 11.4906 55.5867 11.6549L58.3772 8.78906ZM54.9359 7.408C53.6343 7.408 52.4589 7.8741 51.5134 8.77107L54.2664 11.6729C54.465 11.4846 54.6536 11.408 54.9359 11.408V7.408ZM51.5144 8.77009C50.5538 9.68014 50.06 10.8576 49.9511 12.1431L53.9368 12.4809C53.9745 12.0358 54.1113 11.8199 54.2654 11.6739L51.5144 8.77009ZM68.4824 18.406L69.2947 20.2336L70.8372 19.5481L70.4205 17.9123L68.4824 18.406ZM67.0084 18.934L66.4337 17.0183L66.4203 17.0224L67.0084 18.934ZM62.6304 18.01L60.9311 19.0647L60.9526 19.0993L60.9755 19.133L62.6304 18.01ZM62.2344 9.738H64.2344V7.738H62.2344V9.738ZM60.7164 9.738H58.7164V11.738H60.7164V9.738ZM60.7164 7.472V5.472H58.7164V7.472H60.7164ZM62.2344 7.472V9.472H64.2344V7.472H62.2344ZM62.2344 3.732V1.732H60.2344V3.732H62.2344ZM65.1824 3.732H67.1824V1.732H65.1824V3.732ZM65.1824 7.472H63.1824V9.472H65.1824V7.472ZM67.6024 7.472H69.6024V5.472H67.6024V7.472ZM67.6024 9.738V11.738H69.6024V9.738H67.6024ZM65.1824 9.738V7.738H63.1824V9.738H65.1824ZM65.4904 16.228L64.1888 17.7465L64.2146 17.7686L64.241 17.7897L65.4904 16.228ZM67.1844 16.338L66.5237 14.4503L67.1844 16.338ZM67.8884 16.074L69.8265 15.5803L69.2553 13.3378L67.1192 14.2278L67.8884 16.074ZM67.6701 16.5784C67.3757 16.7093 66.9696 16.8576 66.4337 17.0183L67.5831 20.8497C68.2206 20.6584 68.7972 20.4547 69.2947 20.2336L67.6701 16.5784ZM66.4203 17.0224C66.0444 17.1381 65.6489 17.198 65.2264 17.198V21.198C66.0359 21.198 66.8285 21.0819 67.5966 20.8456L66.4203 17.0224ZM65.2264 17.198C64.9225 17.198 64.69 17.1457 64.5039 17.0676L62.957 20.7564C63.6802 21.0597 64.445 21.198 65.2264 21.198V17.198ZM64.5039 17.0676C64.4093 17.0279 64.3479 16.9791 64.2854 16.887L60.9755 19.133C61.4703 19.8622 62.1423 20.4147 62.957 20.7564L64.5039 17.0676ZM64.3297 16.9553C64.3194 16.9387 64.2344 16.7876 64.2344 16.36H60.2344C60.2344 17.2817 60.4134 18.2307 60.9311 19.0647L64.3297 16.9553ZM64.2344 16.36V9.738H60.2344V16.36H64.2344ZM62.2344 7.738H60.7164V11.738H62.2344V7.738ZM62.7164 9.738V7.472H58.7164V9.738H62.7164ZM60.7164 9.472H62.2344V5.472H60.7164V9.472ZM64.2344 7.472V3.732H60.2344V7.472H64.2344ZM62.2344 5.732H65.1824V1.732H62.2344V5.732ZM63.1824 3.732V7.472H67.1824V3.732H63.1824ZM65.1824 9.472H67.6024V5.472H65.1824V9.472ZM65.6024 7.472V9.738H69.6024V7.472H65.6024ZM67.6024 7.738H65.1824V11.738H67.6024V7.738ZM63.1824 9.738V15.37H67.1824V9.738H63.1824ZM63.1824 15.37C63.1824 16.0726 63.3659 17.0411 64.1888 17.7465L66.792 14.7095C66.9841 14.8741 67.0907 15.0634 67.1418 15.2058C67.1879 15.3341 67.1824 15.4037 67.1824 15.37H63.1824ZM64.241 17.7897C64.8494 18.2764 65.5654 18.492 66.2824 18.492V14.492C66.3206 14.492 66.3934 14.4978 66.4859 14.5286C66.5805 14.5602 66.6679 14.6087 66.7398 14.6663L64.241 17.7897ZM66.2824 18.492C66.8175 18.492 67.3414 18.402 67.8451 18.2257L66.5237 14.4503C66.4408 14.4793 66.3634 14.492 66.2824 14.492V18.492ZM67.8451 18.2257C68.1554 18.1171 68.4308 18.0147 68.6577 17.9202L67.1192 14.2278C66.9941 14.28 66.8001 14.3535 66.5237 14.4503L67.8451 18.2257ZM65.9503 16.5677L66.5443 18.8997L70.4205 17.9123L69.8265 15.5803L65.9503 16.5677ZM86.1269 19H84.1269V21H86.1269V19ZM86.1269 8.748H88.1269L84.3558 7.81903L86.1269 8.748ZM82.1229 16.382V18.382H83.3324L83.8941 17.311L82.1229 16.382ZM80.4289 16.382L78.6578 17.311L79.2195 18.382H80.4289V16.382ZM76.4249 8.748L78.1961 7.81903L74.4249 8.748H76.4249ZM76.4249 19V21H78.4249V19H76.4249ZM73.3889 19H71.3889V21H73.3889V19ZM73.3889 3.38V1.38H71.3889V3.38H73.3889ZM76.6449 3.38L78.4195 2.45757L77.8594 1.38H76.6449V3.38ZM81.2649 12.268L79.4904 13.1904L81.2565 16.5882L83.0359 13.1973L81.2649 12.268ZM85.9289 3.38V1.38H84.7198L84.158 2.45067L85.9289 3.38ZM89.1629 3.38H91.1629V1.38H89.1629V3.38ZM89.1629 19V21H91.1629V19H89.1629ZM88.1269 19V8.748H84.1269V19H88.1269ZM84.3558 7.81903L80.3518 15.453L83.8941 17.311L87.8981 9.67697L84.3558 7.81903ZM82.1229 14.382H80.4289V18.382H82.1229V14.382ZM82.2001 15.453L78.1961 7.81903L74.6538 9.67697L78.6578 17.311L82.2001 15.453ZM74.4249 8.748V19H78.4249V8.748H74.4249ZM76.4249 17H73.3889V21H76.4249V17ZM75.3889 19V3.38H71.3889V19H75.3889ZM73.3889 5.38H76.6449V1.38H73.3889V5.38ZM74.8704 4.30243L79.4904 13.1904L83.0395 11.3456L78.4195 2.45757L74.8704 4.30243ZM83.0359 13.1973L87.6999 4.30932L84.158 2.45067L79.494 11.3387L83.0359 13.1973ZM85.9289 5.38H89.1629V1.38H85.9289V5.38ZM87.1629 3.38V19H91.1629V3.38H87.1629ZM89.1629 17H86.1269V21H89.1629V17ZM92.9127 18.406L91.8552 20.1036L91.8714 20.1136L91.8878 20.1234L92.9127 18.406ZM90.8447 16.206L89.0792 17.1457L90.8447 16.206ZM90.8447 10.288L89.0911 9.32633L89.0851 9.33728L89.0792 9.3483L90.8447 10.288ZM92.9347 8.11L93.972 9.82004L93.9799 9.8152L92.9347 8.11ZM99.3807 8.11L98.3232 9.80756L98.3394 9.81765L98.3558 9.82742L99.3807 8.11ZM101.471 16.206L103.236 17.1457L103.236 17.1457L101.471 16.206ZM99.3807 18.406L100.418 20.116L100.426 20.1112L99.3807 18.406ZM93.5507 15.062L91.7619 15.9564L91.767 15.9666L91.7722 15.9767L93.5507 15.062ZM94.6287 16.272L95.713 14.5914L95.713 14.5914L94.6287 16.272ZM97.6867 16.272L98.771 17.9526L98.7898 17.9404L98.8084 17.9278L97.6867 16.272ZM98.7647 15.04L96.996 14.1065L96.991 14.1159L96.9862 14.1253L98.7647 15.04ZM98.7647 11.476L96.9759 12.3704L96.9909 12.4006L97.007 12.4302L98.7647 11.476ZM97.6867 10.244L96.565 11.8998L96.5836 11.9124L96.6025 11.9246L97.6867 10.244ZM94.6287 10.244L95.713 11.9246L95.7318 11.9124L95.7504 11.8998L94.6287 10.244ZM93.5507 11.476L95.3293 12.3907L95.3345 12.3806L95.3396 12.3704L93.5507 11.476ZM96.1687 17.22C95.1989 17.22 94.4825 17.0137 93.9376 16.6886L91.8878 20.1234C93.1617 20.8836 94.6159 21.22 96.1687 21.22V17.22ZM93.9702 16.7084C93.3668 16.3326 92.925 15.8577 92.6102 15.2663L89.0792 17.1457C89.7325 18.373 90.6693 19.3648 91.8552 20.1036L93.9702 16.7084ZM92.6102 15.2663C92.2842 14.6537 92.1187 13.9948 92.1187 13.258H88.1187C88.1187 14.6332 88.4373 15.9396 89.0792 17.1457L92.6102 15.2663ZM92.1187 13.258C92.1187 12.5017 92.2864 11.8362 92.6102 11.2277L89.0792 9.3483C88.4351 10.5585 88.1187 11.873 88.1187 13.258H92.1187ZM92.5984 11.2497C92.9265 10.6513 93.3748 10.1822 93.972 9.82002L91.8975 6.39998C90.7053 7.12313 89.7603 8.10607 89.0911 9.32633L92.5984 11.2497ZM93.9799 9.8152C94.5248 9.4812 95.2277 9.274 96.1687 9.274V5.274C94.6164 5.274 93.1633 5.62414 91.8896 6.4048L93.9799 9.8152ZM96.1687 9.274C97.1107 9.274 97.7999 9.48152 98.3232 9.80756L100.438 6.41244C99.1723 5.62381 97.7201 5.274 96.1687 5.274V9.274ZM98.3558 9.82742C98.9612 10.1887 99.3975 10.6496 99.7052 11.2277L103.236 9.3483C102.576 8.10772 101.619 7.11662 100.406 6.39257L98.3558 9.82742ZM99.7052 11.2277C100.029 11.8362 100.197 12.5017 100.197 13.258H104.197C104.197 11.873 103.88 10.5585 103.236 9.3483L99.7052 11.2277ZM100.197 13.258C100.197 13.9948 100.031 14.6537 99.7052 15.2663L103.236 17.1457C103.878 15.9396 104.197 14.6332 104.197 13.258H100.197ZM99.7052 15.2663C99.3949 15.8494 98.9521 16.3229 98.3356 16.7008L100.426 20.1112C101.628 19.3744 102.579 18.3813 103.236 17.1457L99.7052 15.2663ZM98.3435 16.696C97.8168 17.0154 97.1202 17.22 96.1687 17.22V21.22C97.7106 21.22 99.1553 20.8819 100.418 20.116L98.3435 16.696ZM91.1547 13.258C91.1547 14.1986 91.3404 15.1134 91.7619 15.9564L95.3396 14.1676C95.2331 13.9546 95.1547 13.6667 95.1547 13.258H91.1547ZM91.7722 15.9767C92.1854 16.7802 92.7755 17.4565 93.5445 17.9526L95.713 14.5914C95.5726 14.5008 95.4441 14.3705 95.3293 14.1473L91.7722 15.9767ZM93.5445 17.9526C94.3412 18.4666 95.2352 18.712 96.1687 18.712V14.712C95.9583 14.712 95.8256 14.6641 95.713 14.5914L93.5445 17.9526ZM96.1687 18.712C97.0985 18.712 97.983 18.461 98.771 17.9526L96.6025 14.5914C96.4811 14.6697 96.3537 14.712 96.1687 14.712V18.712ZM98.8084 17.9278C99.5551 17.4221 100.134 16.7505 100.543 15.9547L96.9862 14.1253C96.8674 14.3562 96.7277 14.5059 96.565 14.6162L98.8084 17.9278ZM100.534 15.9735C100.983 15.1222 101.183 14.1932 101.183 13.236H97.1827C97.1827 13.6281 97.104 13.9018 96.996 14.1065L100.534 15.9735ZM101.183 13.236C101.183 12.2866 100.98 11.3644 100.522 10.5218L97.007 12.4302C97.107 12.6143 97.1827 12.8654 97.1827 13.236H101.183ZM100.554 10.5816C100.144 9.76323 99.5538 9.06842 98.771 8.56341L96.6025 11.9246C96.729 12.0062 96.857 12.1328 96.9759 12.3704L100.554 10.5816ZM98.8084 8.58816C98.0175 8.05235 97.1196 7.782 96.1687 7.782V11.782C96.3325 11.782 96.4467 11.8196 96.565 11.8998L98.8084 8.58816ZM96.1687 7.782C95.2144 7.782 94.3071 8.0462 93.507 8.58816L95.7504 11.8998C95.8597 11.8258 95.979 11.782 96.1687 11.782V7.782ZM93.5445 8.56341C92.7617 9.06842 92.171 9.76323 91.7619 10.5816L95.3396 12.3704C95.4584 12.1328 95.5864 12.0062 95.713 11.9246L93.5445 8.56341ZM91.7722 10.5613C91.3399 11.4018 91.1547 12.3189 91.1547 13.258H95.1547C95.1547 12.8478 95.2335 12.5769 95.3293 12.3907L91.7722 10.5613ZM103.043 10.222L104.843 11.0931L104.843 11.0931L103.043 10.222ZM104.869 8.066L105.992 9.72043L105.992 9.72043L104.869 8.066ZM109.819 7.912L108.752 9.60385L108.773 9.6173L108.795 9.6302L109.819 7.912ZM111.425 9.496L109.703 10.5135L113.425 16.812V9.496H111.425ZM111.425 2.94V0.94H109.425V2.94H111.425ZM114.373 2.94H116.373V0.94H114.373V2.94ZM114.527 16.382L112.948 17.6099L112.983 17.6555L113.021 17.699L114.527 16.382ZM115.055 16.602H117.055V14.8235L115.288 14.6157L115.055 16.602ZM115.055 19L115.436 20.9632L117.055 20.6486V19H115.055ZM112.481 18.758L111.248 20.333L111.264 20.3457L111.281 20.358L112.481 18.758ZM111.909 17.724L109.912 17.845L109.915 17.8875L109.919 17.9298L111.909 17.724ZM111.865 16.998L113.861 16.877L113.466 10.3649L110.143 15.9794L111.865 16.998ZM110.127 18.648L109.204 16.8736L109.196 16.8774L109.189 16.8813L110.127 18.648ZM105.023 18.428L103.92 20.0967L103.93 20.1036L103.941 20.1104L105.023 18.428ZM103.087 16.272L101.309 17.1893L101.315 17.2011L103.087 16.272ZM111.425 14.776L113.301 15.4674L113.425 15.1327V14.776H111.425ZM111.425 12.026H113.425V11.6737L113.304 11.3425L111.425 12.026ZM110.215 10.42L109.021 12.0249L109.021 12.0249L110.215 10.42ZM106.871 10.288L108.028 11.919L108.045 11.9068L108.062 11.8942L106.871 10.288ZM105.815 11.586L107.623 12.44L107.628 12.4305L107.632 12.421L105.815 11.586ZM105.859 15.04L104.09 15.9735L104.095 15.9839L104.101 15.9942L105.859 15.04ZM106.981 16.272L105.883 17.9441L105.913 17.9638L105.944 17.9824L106.981 16.272ZM110.281 16.162L109.181 14.4912L109.171 14.4979L109.161 14.5048L110.281 16.162ZM104.383 13.236C104.383 12.4105 104.546 11.7073 104.843 11.0931L101.242 9.35088C100.659 10.5553 100.383 11.8615 100.383 13.236H104.383ZM104.843 11.0931C105.142 10.4752 105.527 10.0365 105.992 9.72043L103.745 6.41157C102.655 7.15153 101.823 8.1501 101.242 9.35088L104.843 11.0931ZM105.992 9.72043C106.417 9.43174 106.908 9.274 107.531 9.274V5.274C106.158 5.274 104.874 5.64426 103.745 6.41157L105.992 9.72043ZM107.531 9.274C108.03 9.274 108.418 9.39339 108.752 9.60385L110.885 6.22015C109.87 5.57994 108.732 5.274 107.531 5.274V9.274ZM108.795 9.6302C109.217 9.88188 109.504 10.1767 109.703 10.5135L113.146 8.47854C112.583 7.52462 111.798 6.76345 110.842 6.1938L108.795 9.6302ZM113.425 9.496V2.94H109.425V9.496H113.425ZM111.425 4.94H114.373V0.94H111.425V4.94ZM112.373 2.94V15.7H116.373V2.94H112.373ZM112.373 15.7C112.373 16.114 112.414 16.9241 112.948 17.6099L116.105 15.1541C116.291 15.3926 116.347 15.6048 116.362 15.672C116.379 15.7461 116.373 15.7652 116.373 15.7H112.373ZM113.021 17.699C113.599 18.3595 114.363 18.5345 114.821 18.5883L115.288 14.6157C115.293 14.6163 115.377 14.6258 115.505 14.6788C115.637 14.7341 115.841 14.8476 116.032 15.065L113.021 17.699ZM113.055 16.602V19H117.055V16.602H113.055ZM114.673 17.0368C114.192 17.1302 113.92 17.154 113.801 17.154V21.154C114.297 21.154 114.861 21.0752 115.436 20.9632L114.673 17.0368ZM113.801 17.154C113.703 17.154 113.657 17.1418 113.649 17.1393C113.645 17.1381 113.648 17.1386 113.655 17.1424C113.663 17.1462 113.672 17.1516 113.681 17.158L111.281 20.358C112.044 20.9304 112.929 21.154 113.801 21.154V17.154ZM113.713 17.183C113.737 17.2019 113.789 17.2508 113.835 17.3334C113.88 17.416 113.895 17.4864 113.898 17.5182L109.919 17.9298C110.019 18.8964 110.484 19.735 111.248 20.333L113.713 17.183ZM113.905 17.603L113.861 16.877L109.868 17.119L109.912 17.845L113.905 17.603ZM110.143 15.9794C109.906 16.38 109.602 16.6665 109.204 16.8736L111.049 20.4224C112.118 19.8668 112.972 19.0534 113.586 18.0166L110.143 15.9794ZM109.189 16.8813C108.751 17.1138 108.317 17.22 107.861 17.22V21.22C108.989 21.22 110.065 20.9449 111.064 20.4147L109.189 16.8813ZM107.861 17.22C107.135 17.22 106.572 17.0464 106.104 16.7456L103.941 20.1104C105.116 20.8656 106.445 21.22 107.861 21.22V17.22ZM106.125 16.7593C105.593 16.4078 105.174 15.9468 104.858 15.3429L101.315 17.2011C101.937 18.3866 102.809 19.3628 103.92 20.0967L106.125 16.7593ZM104.864 15.3547C104.554 14.7538 104.383 14.0606 104.383 13.236H100.383C100.383 14.6407 100.681 15.9716 101.309 17.1893L104.864 15.3547ZM113.425 14.776V12.026H109.425V14.776H113.425ZM113.304 11.3425C112.93 10.315 112.281 9.46445 111.408 8.81507L109.021 12.0249C109.292 12.2262 109.449 12.4463 109.545 12.7095L113.304 11.3425ZM111.408 8.81508C110.557 8.18225 109.561 7.782 108.455 7.782V11.782C108.55 11.782 108.728 11.8071 109.021 12.0249L111.408 8.81508ZM108.455 7.782C107.452 7.782 106.5 8.07232 105.679 8.6818L108.062 11.8942C108.15 11.829 108.254 11.782 108.455 11.782V7.782ZM105.713 8.65699C104.952 9.197 104.382 9.9132 103.997 10.751L107.632 12.421C107.746 12.1735 107.88 12.0243 108.028 11.919L105.713 8.65699ZM104.006 10.732C103.624 11.5416 103.441 12.4073 103.441 13.302H107.441C107.441 12.9647 107.507 12.6863 107.623 12.44L104.006 10.732ZM103.441 13.302C103.441 14.2391 103.651 15.1415 104.09 15.9735L107.627 14.1065C107.509 13.8825 107.441 13.6262 107.441 13.302H103.441ZM104.101 15.9942C104.53 16.7855 105.127 17.4475 105.883 17.9441L108.078 14.5999C107.896 14.4805 107.744 14.3212 107.616 14.0858L104.101 15.9942ZM105.944 17.9824C106.768 18.4818 107.682 18.712 108.631 18.712V14.712C108.347 14.712 108.161 14.6489 108.017 14.5616L105.944 17.9824ZM108.631 18.712C109.653 18.712 110.586 18.3693 111.4 17.8192L109.161 14.5048C108.89 14.6881 108.723 14.712 108.631 14.712V18.712ZM111.38 17.8328C112.248 17.2615 112.93 16.4748 113.301 15.4674L109.548 14.0846C109.508 14.1919 109.428 14.3292 109.181 14.4912L111.38 17.8328ZM118.278 18.406L117.241 20.116L117.247 20.1197L117.253 20.1234L118.278 18.406ZM116.188 16.25L114.435 17.2117L114.441 17.2237L116.188 16.25ZM116.166 10.31L114.406 9.36012L114.401 9.3703L116.166 10.31ZM118.278 8.11L119.303 9.82742L119.313 9.82137L119.323 9.8152L118.278 8.11ZM124.768 8.11L123.711 9.80756L123.721 9.81385L123.731 9.82002L124.768 8.11ZM126.814 10.288L125.037 11.2053L125.046 11.2225L125.055 11.2396L126.814 10.288ZM127.474 14.182V16.182H129.183L129.45 14.4939L127.474 14.182ZM118.564 14.182V12.182H116.394L116.571 14.3454L118.564 14.182ZM119.554 16.294L118.237 17.7992L118.246 17.8072L118.256 17.8151L119.554 16.294ZM123.272 16.646L124.226 18.4037L124.235 18.3991L124.244 18.3943L123.272 16.646ZM124.35 15.502L124.886 13.5752L123.168 13.0972L122.497 14.7492L124.35 15.502ZM126.88 16.206L128.681 17.0763L129.723 14.921L127.416 14.2792L126.88 16.206ZM124.834 18.384L125.855 20.1037L125.865 20.0979L125.875 20.0919L124.834 18.384ZM118.498 12.312L116.505 12.1431L116.322 14.312H118.498V12.312ZM124.526 12.312V14.312H126.74L126.516 12.1097L124.526 12.312ZM123.536 10.222L122.141 11.6549L122.16 11.6735L122.18 11.6916L123.536 10.222ZM119.444 10.222L120.82 11.6739L120.821 11.6729L119.444 10.222ZM121.512 17.22C120.562 17.22 119.851 17.0158 119.303 16.6886L117.253 20.1234C118.524 20.8815 119.969 21.22 121.512 21.22V17.22ZM119.315 16.696C118.71 16.329 118.261 15.8614 117.935 15.2763L114.441 17.2237C115.112 18.428 116.057 19.3976 117.241 20.116L119.315 16.696ZM117.942 15.2883C117.608 14.6793 117.44 14.0282 117.44 13.302H113.44C113.44 14.6878 113.771 16.002 114.435 17.2117L117.942 15.2883ZM117.44 13.302C117.44 12.5262 117.61 11.8541 117.932 11.2497L114.401 9.3703C113.754 10.5845 113.44 11.9071 113.44 13.302H117.44ZM117.926 11.2599C118.252 10.6562 118.701 10.1869 119.303 9.82742L117.253 6.39257C116.037 7.11845 115.078 8.11581 114.406 9.36013L117.926 11.2599ZM119.323 9.8152C119.865 9.48337 120.574 9.274 121.534 9.274V5.274C119.972 5.274 118.51 5.62196 117.233 6.4048L119.323 9.8152ZM121.534 9.274C122.496 9.274 123.191 9.48374 123.711 9.80756L125.826 6.41244C124.556 5.62159 123.095 5.274 121.534 5.274V9.274ZM123.731 9.82002C124.318 10.1762 124.741 10.631 125.037 11.2053L128.591 9.37071C127.949 8.12634 127.008 7.12916 125.805 6.39998L123.731 9.82002ZM125.055 11.2396C125.377 11.8349 125.54 12.4748 125.54 13.192H129.54C129.54 11.8266 129.219 10.5304 128.573 9.33636L125.055 11.2396ZM125.54 13.192C125.54 13.5026 125.522 13.7233 125.499 13.8701L129.45 14.4939C129.515 14.0834 129.54 13.6441 129.54 13.192H125.54ZM127.474 12.182H118.564V16.182H127.474V12.182ZM116.571 14.3454C116.68 15.6735 117.2 16.8913 118.237 17.7992L120.871 14.7888C120.735 14.67 120.595 14.4798 120.558 14.0186L116.571 14.3454ZM118.256 17.8151C119.212 18.6317 120.36 19.064 121.622 19.064V15.064C121.33 15.064 121.099 14.9829 120.853 14.7729L118.256 17.8151ZM121.622 19.064C122.541 19.064 123.419 18.8421 124.226 18.4037L122.318 14.8883C122.099 15.0072 121.877 15.064 121.622 15.064V19.064ZM124.244 18.3943C125.091 17.9237 125.809 17.2242 126.203 16.2548L122.497 14.7492C122.497 14.7504 122.497 14.7506 122.496 14.7516C122.495 14.7527 122.492 14.7583 122.482 14.7684C122.463 14.7885 122.412 14.836 122.301 14.8977L124.244 18.3943ZM123.814 17.4288L126.344 18.1328L127.416 14.2792L124.886 13.5752L123.814 17.4288ZM125.08 15.3357C124.842 15.8272 124.446 16.2786 123.793 16.6761L125.875 20.0919C127.1 19.3454 128.068 18.3448 128.681 17.0763L125.08 15.3357ZM123.813 16.6643C123.232 17.0092 122.49 17.22 121.512 17.22V21.22C123.086 21.22 124.559 20.8735 125.855 20.1037L123.813 16.6643ZM118.498 14.312H124.526V10.312H118.498V14.312ZM126.516 12.1097C126.385 10.82 125.866 9.65088 124.893 8.75239L122.18 11.6916C122.35 11.8491 122.492 12.0734 122.536 12.5143L126.516 12.1097ZM124.931 8.78906C123.986 7.8681 122.797 7.408 121.49 7.408V11.408C121.797 11.408 121.972 11.4906 122.141 11.6549L124.931 8.78906ZM121.49 7.408C120.189 7.408 119.013 7.8741 118.068 8.77107L120.821 11.6729C121.019 11.4846 121.208 11.408 121.49 11.408V7.408ZM118.069 8.77009C117.108 9.68014 116.614 10.8576 116.505 12.1431L120.491 12.4809C120.529 12.0358 120.666 11.8199 120.82 11.6739L118.069 8.77009Z" fill="black"/>
<defs>
<linearGradient id="paint0_linear" x1="64.5" y1="-2" x2="64.5" y2="24" gradientUnits="userSpaceOnUse">
<stop stop-color="white"/>
<stop offset="0.822917" stop-color="#BCBCBC"/>
</linearGradient>
</defs>
</svg>
