<svg width="70" height="70" viewBox="0 0 70 70" fill="none" xmlns="http://www.w3.org/2000/svg">
<path d="M34.9941 44.8795C30.2435 44.8795 26.2808 41.5097 25.3401 37.0323H9.53632C10.6534 50.052 21.5538 60.2675 34.8295 60.2675C48.1051 60.2675 59.0173 50.052 60.1226 37.0323H44.648C43.7073 41.5215 39.7446 44.8795 34.9941 44.8795Z" fill="white"/>
<path d="M40.6382 59.6077C51.1741 57.1333 59.1818 48.0961 60.1225 37.0323H53.8904C53.2671 47.0711 48.011 55.578 40.6382 59.6077Z" fill="#DFDFDF"/>
<path d="M40.8147 34.9939C40.8029 34.9939 40.8029 34.9939 40.8147 34.9939C40.8029 34.2752 40.6736 33.5918 40.4384 32.9556C39.6153 30.7405 37.4869 29.1734 34.9941 29.1734C32.5012 29.1734 30.3729 30.7522 29.5498 32.9556C29.3146 33.5918 29.1852 34.2752 29.1852 34.9939H29.197C29.197 35.7127 29.3264 36.3961 29.5615 37.0323C30.3846 39.2474 32.513 40.8145 35.0058 40.8145C37.4987 40.8145 39.627 39.2357 40.4502 37.0323C40.6853 36.4078 40.8147 35.7127 40.8147 34.9939Z" fill="white"/>
<path d="M35.0059 25.1203C39.7564 25.1203 43.7192 28.4901 44.6599 32.9674H60.4637C59.3466 19.936 48.4462 9.7205 35.1588 9.7205C21.8713 9.7205 10.9827 19.936 9.86563 32.9557H25.3519C26.2926 28.4783 30.2554 25.1203 35.0059 25.1203Z" fill="#FF1C1C"/>
<path d="M53.8904 32.9558H60.4518C59.4876 21.7035 51.2094 12.5367 40.4031 10.2627C47.9052 14.2334 53.2554 22.8228 53.8904 32.9558Z" fill="#DF1818"/>
<path d="M35.1587 9.72045C48.4461 9.72045 59.3465 19.9359 60.4518 32.9556H44.6481C43.7074 28.4782 39.7446 25.1084 34.9941 25.1084C30.2436 25.1084 26.2808 28.4782 25.3401 32.9556H9.8656C10.9827 19.9359 21.8831 9.72045 35.1587 9.72045ZM40.4384 32.9556C40.6736 33.5918 40.8029 34.2752 40.8029 34.994H40.8147C40.8147 35.7127 40.6853 36.3961 40.4502 37.0323C39.6271 39.2475 37.4987 40.8145 35.0059 40.8145C32.513 40.8145 30.3847 39.2357 29.5615 37.0323C29.3264 36.3961 29.197 35.7127 29.197 34.994H29.1853C29.1853 34.2752 29.3146 33.5918 29.5498 32.9556C30.3729 30.7405 32.5012 29.1734 34.9941 29.1734C37.487 29.1734 39.6153 30.7523 40.4384 32.9556ZM34.8295 60.2793C21.5421 60.2793 10.6417 50.0638 9.53635 37.0441H25.3401C26.2808 41.5215 30.2436 44.8913 34.9941 44.8913C39.7446 44.8913 43.7074 41.5215 44.6481 37.0441H60.1344C59.0173 50.052 48.1169 60.2793 34.8295 60.2793ZM34.9941 4.86604C18.3907 4.86604 4.92691 18.357 4.92691 34.994C4.92691 51.6309 18.3907 65.1219 34.9941 65.1219C51.5975 65.1219 65.0731 51.6427 65.0731 34.994C65.0731 18.3453 51.6093 4.86604 34.9941 4.86604Z" fill="black"/>
</svg>
